<?xml version="1.0" encoding="UTF-8"?>
<svg xmlns="http://www.w3.org/2000/svg" viewBox="0 0 1920 1080">
  <defs>
    <style>
      .cls-1 {
        font-size: 42px;
        opacity: .6;
      }

      .cls-1, .cls-2 {
        fill: #fff;
      }

      .cls-1, .cls-3 {
        font-family: Avenir-Black, Avenir;
        font-weight: 800;
      }

      .cls-4 {
        fill: #ba1732;
      }

      .cls-5, .cls-3 {
        fill: #f6f6f6;
      }

      .cls-6 {
        opacity: .75;
        stroke: #2d2e83;
        stroke-miterlimit: 10;
        stroke-width: 2.83px;
      }

      .cls-6, .cls-7 {
        fill: #2d2e83;
      }

      .cls-3 {
        font-size: 72px;
      }

      .cls-8 {
        letter-spacing: -.09em;
      }

      .cls-9 {
        letter-spacing: -.02em;
      }

      .cls-10 {
        letter-spacing: 0em;
      }

      .cls-11 {
        letter-spacing: .01em;
      }

      .cls-12 {
        letter-spacing: .03em;
      }
    </style>
  </defs>
  <g id="Capa_2" data-name="Capa 2">
    <rect class="cls-4" x="0" width="1928.68" height="1080"/>
  </g>
  <g id="Capa_1" data-name="Capa 1">
    <rect class="cls-2" x="0" width="1928.68" height="273.96"/>
    <rect class="cls-7" y="994.65" width="1920" height="84.83"/>
    <text class="cls-3" transform="translate(77.43 652.39)"><tspan x="0" y="0">A Strictly P</tspan><tspan class="cls-9" x="382.75" y="0">r</tspan><tspan x="410.76" y="0">oper Metric for Evaluating </tspan><tspan x="0" y="86.4">Dynamic P</tspan><tspan class="cls-9" x="357.4" y="86.4">r</tspan><tspan x="385.41" y="86.4">edictions for Left-</tspan><tspan class="cls-8" x="991.86" y="86.4">T</tspan><tspan x="1026.56" y="86.4">runcated </tspan><tspan x="0" y="172.8">and Right-Censo</tspan><tspan class="cls-9" x="558.57" y="172.8">r</tspan><tspan x="586.58" y="172.8">ed Data with Asymmetric </tspan><tspan x="0" y="259.2">Misclassification</tspan></text>
    <g>
      <path class="cls-4" d="M-5.66-1.43h60.68v275.39H-5.66V-1.43Z"/>
      <path class="cls-4" d="M75.64-1.43h66.12l43.96,176.59h.78L244.06-1.43h56.4l57.18,181.26h.78L404.7-1.43h61.46l-80.51,275.39h-54.07l-60.68-190.59h-.78l-60.68,190.59h-52.12L75.64-1.43Z"/>
      <path class="cls-4" d="M623.69,65.86c-4.93-6.22-11.61-10.82-20.03-13.81-8.43-2.98-16.4-4.47-23.92-4.47-4.41,0-8.95.52-13.62,1.55-4.66,1.04-9.08,2.66-13.22,4.86-4.15,2.21-7.52,5.12-10.11,8.75-2.6,3.63-3.89,8.04-3.89,13.23,0,8.3,3.11,14.65,9.33,19.06,6.23,4.41,14.07,8.17,23.54,11.28,9.46,3.11,19.64,6.23,30.53,9.34,10.89,3.11,21.07,7.53,30.54,13.23,9.46,5.71,17.31,13.36,23.53,22.95,6.23,9.6,9.34,22.43,9.34,38.51s-2.86,28.66-8.56,40.06c-5.71,11.41-13.42,20.88-23.14,28.39-9.72,7.53-21,13.1-33.84,16.73-12.84,3.63-26.39,5.44-40.65,5.44-17.89,0-34.49-2.72-49.79-8.17-15.3-5.45-29.56-14.26-42.79-26.45l43.18-47.46c6.22,8.3,14.06,14.72,23.53,19.25,9.46,4.54,19.26,6.81,29.37,6.81,4.92,0,9.92-.59,14.97-1.75,5.06-1.17,9.59-2.92,13.62-5.25,4.01-2.33,7.25-5.31,9.72-8.95,2.46-3.63,3.69-7.91,3.69-12.84,0-8.3-3.18-14.84-9.53-19.64-6.36-4.8-14.33-8.88-23.92-12.25-9.6-3.37-19.97-6.74-31.12-10.11-11.15-3.37-21.53-7.91-31.12-13.61-9.6-5.7-17.57-13.23-23.92-22.56-6.36-9.34-9.53-21.65-9.53-36.95s2.92-27.75,8.75-38.9c5.83-11.15,13.62-20.48,23.34-28.01,9.72-7.52,20.94-13.16,33.65-16.92,12.7-3.76,25.8-5.64,39.28-5.64,15.56,0,30.59,2.21,45.12,6.61,14.52,4.41,27.61,11.8,39.28,22.17l-41.62,45.51Z"/>
      <path class="cls-4" d="M704.98-1.43h91.8l63.4,179.7h.78L924.75-1.43h91.41v275.39h-60.68V62.75h-.78l-72.35,211.21h-46.28l-69.63-211.21h-.78v211.21h-60.68V-1.43Z"/>
      <path class="cls-4" d="M1057.38,212.11l106.97-96.07c5.44-4.92,10.89-10.5,16.33-16.73,5.45-6.22,8.17-13.48,8.17-21.78,0-9.34-3.38-16.66-10.11-21.98-6.75-5.31-14.66-7.97-23.73-7.97-10.89,0-19.38,3.37-25.48,10.11-6.09,6.75-9.53,15.04-10.31,24.9l-58.34-4.28c.78-14.26,3.76-26.65,8.95-37.15,5.19-10.5,12.06-19.25,20.62-26.26,8.56-7,18.6-12.25,30.14-15.75,11.54-3.5,24.05-5.25,37.54-5.25,12.45,0,24.12,1.75,35.01,5.25,10.89,3.5,20.35,8.69,28.39,15.56,8.03,6.87,14.32,15.5,18.87,25.86,4.53,10.37,6.81,22.43,6.81,36.18,0,8.82-.91,16.79-2.72,23.92-1.82,7.14-4.35,13.61-7.59,19.45-3.24,5.83-7.07,11.22-11.47,16.14-4.41,4.93-9.21,9.72-14.39,14.39l-83.63,71.96h122.13v51.34h-192.15v-61.85Z"/>
      <path class="cls-4" d="M1275.59,136.27c0-16.34,1.49-32.93,4.47-49.79,2.98-16.85,8.29-32.15,15.95-45.9,7.64-13.74,18.09-24.95,31.31-33.65,13.23-8.68,30.08-13.03,50.56-13.03s37.34,4.34,50.57,13.03c13.23,8.69,23.66,19.91,31.31,33.65,7.64,13.75,12.96,29.05,15.95,45.9,2.98,16.86,4.47,33.45,4.47,49.79s-1.49,32.93-4.47,49.79c-2.99,16.86-8.3,32.16-15.95,45.9-7.65,13.75-18.09,24.96-31.31,33.65-13.23,8.68-30.08,13.03-50.57,13.03s-37.34-4.34-50.56-13.03c-13.23-8.69-23.67-19.9-31.31-33.65-7.66-13.74-12.97-29.04-15.95-45.9-2.99-16.85-4.47-33.45-4.47-49.79ZM1333.94,136.27c0,7.26.32,15.95.98,26.06.64,10.11,2.39,19.84,5.25,29.17,2.85,9.34,7.2,17.25,13.03,23.73,5.83,6.49,14.06,9.73,24.7,9.73s18.54-3.24,24.51-9.73c5.96-6.48,10.37-14.39,13.23-23.73,2.85-9.34,4.6-19.06,5.25-29.17.65-10.11.98-18.8.98-26.06s-.33-15.95-.98-26.06c-.65-10.11-2.4-19.84-5.25-29.17-2.85-9.34-7.26-17.24-13.23-23.73-5.97-6.48-14.13-9.72-24.51-9.72s-18.86,3.24-24.7,9.72c-5.83,6.48-10.18,14.39-13.03,23.73-2.86,9.34-4.61,19.06-5.25,29.17-.65,10.11-.98,18.81-.98,26.06Z"/>
      <path class="cls-4" d="M1506.26,212.11l106.97-96.07c5.44-4.92,10.89-10.5,16.33-16.73,5.45-6.22,8.17-13.48,8.17-21.78,0-9.34-3.38-16.66-10.11-21.98-6.75-5.31-14.66-7.97-23.73-7.97-10.89,0-19.38,3.37-25.48,10.11-6.09,6.75-9.53,15.04-10.31,24.9l-58.34-4.28c.78-14.26,3.76-26.65,8.95-37.15,5.19-10.5,12.06-19.25,20.62-26.26,8.56-7,18.6-12.25,30.14-15.75,11.54-3.5,24.05-5.25,37.54-5.25,12.45,0,24.12,1.75,35.01,5.25,10.89,3.5,20.35,8.69,28.39,15.56,8.03,6.87,14.32,15.5,18.87,25.86,4.53,10.37,6.81,22.43,6.81,36.18,0,8.82-.91,16.79-2.72,23.92-1.82,7.14-4.35,13.61-7.59,19.45-3.24,5.83-7.07,11.22-11.47,16.14-4.41,4.93-9.21,9.72-14.39,14.39l-83.63,71.96h122.13v51.34h-192.15v-61.85Z"/>
      <path class="cls-4" d="M1823.27,96.98c3.11-.78,6.23-1.42,9.33-1.95,3.11-.52,6.35-.78,9.73-.78,12.96,0,24.76,2.33,35.39,7,10.63,4.67,19.7,11.02,27.23,19.06,7.52,8.04,13.35,17.57,17.5,28.59,4.14,11.02,6.22,22.75,6.22,35.2,0,14.26-2.66,27.17-7.97,38.7-5.32,11.54-12.58,21.46-21.78,29.76-9.21,8.3-20.1,14.72-32.67,19.25-12.58,4.53-26,6.81-40.26,6.81s-28-2.27-40.45-6.81c-12.45-4.53-23.28-10.95-32.48-19.25-9.21-8.3-16.47-18.21-21.78-29.76-5.32-11.54-7.97-24.44-7.97-38.7,0-9.85.9-18.87,2.72-27.04,1.81-8.17,4.21-15.88,7.2-23.14,2.98-7.26,6.48-14.2,10.5-20.81,4.01-6.61,8.22-13.42,12.64-20.42L1816.66-1.43h71.18l-64.57,98.41ZM1870.33,181.77c0-12.45-4.08-22.75-12.25-30.92-8.17-8.17-18.87-12.25-32.09-12.25s-23.92,4.09-32.09,12.25c-8.17,8.17-12.25,18.48-12.25,30.92s4.08,22.75,12.25,30.92c8.17,8.17,18.87,12.25,32.09,12.25s23.92-4.09,32.09-12.25c8.17-8.17,12.25-18.48,12.25-30.92Z"/>
    </g>
    <text class="cls-1" transform="translate(82.3694 1046.5314)"><tspan class="cls-11" x="0" y="0">A</tspan><tspan class="cls-12" x="31.75" y="0">r</tspan><tspan class="cls-11" x="50.23" y="0">nau Ga</tspan><tspan class="cls-10" x="192.44" y="0">r</tspan><tspan class="cls-11" x="209.41" y="0">cia-Fe</tspan><tspan class="cls-12" x="328.35" y="0">r</tspan><tspan class="cls-11" x="346.83" y="0">nández, Dimitris Rizopoulos, Judith Kooiman, Ped</tspan><tspan class="cls-10" x="1367" y="0">r</tspan><tspan class="cls-11" x="1383.96" y="0">o Miranda-Afonso</tspan></text>
    <g>
      <path class="cls-5" d="M1768.88,841.99c-2.21-4.49-1.15-9.34-2.86-13.85l-4.66,13.42c-.43,1.24-4.04,1.32-4.62.08-2.09-4.48-2.81-8.93-4.6-13.43-1.59,4.63-1,8.77-2.17,13.25-.35,1.35-3.25,1.27-4.26.42l3.25-21.85c1.45-.34,4.7-1.03,5.18.27l5.09,13.72,5.33-13.9c.67-.92,3.79-.6,4.92-.04l3.47,21.92c-.8.3-3.58,1.02-4.08,0Z"/>
      <path class="cls-5" d="M1702.14,833.27c.19,1.2-.19,2.63-.12,3.87.07,1.31.22,3.4-.56,4.73-.61,1.04-3.66.76-4.09-.22s-.38-2.6-.38-3.66l-.02-4.01c0-1.57.92-5.51-1.28-5.9-4-.71-4.63,4.2-4.63,7v4.54c-.22,1.01-.11,2.5-1.55,2.82-1,.22-2.61-.66-3.53-.35.5-1.31-.11-2.68-.1-3.98.02-2.88,1.63-7.33-.69-9.77-1.72-1.81-4.63,1.43-4.89,3.32-.45,3.26-.26,5.93-.2,8.72-.07.89-.39,1.98-1.25,1.97l-3.23-.02c-.26-5.73-.7-11.78.13-17.71.67-1.65,4.14.37,4.97.97,2.93-2.22,7.19-2.74,10.05,1.01,2.96-3.26,8-4.09,10.27-.5,1.35,2.14.77,5,1.11,7.17Z"/>
      <path class="cls-5" d="M1706.82,838.06c.04-1.96-.23-3.3-.09-4.6.34-3.2-.21-6.29.38-8.98,1.03-.73,3.33-.45,4.36-.01.32,2.7-1.16,15.08,4,13.61,1.22-.35,2.17-2,2.23-3.33l.47-10.51c1.55-.13,2.88-.24,4.6.05l-.2,17.77c-1.73,1.79-4.02-1.41-5.16-.96-2.12.83-4.54,2.36-7.17,1.39-1.71-.63-3.08-2.21-3.43-4.42Z"/>
      <path class="cls-5" d="M1622.64,831.83c.15,2.21-6.71-.57-7.46,1.91-.29.95-.29,2.67.16,3.93.52,1.49,6.88.06,7.56,1.04.4.57.48,3.14-.21,3.3-3.78.86-7.67.2-12.14.3l-.04-22.39c4.02-.51,8.29-.79,12.05.09.68.16.63,2.46.19,2.99-.97,1.19-6.23-.2-7.08.94-.77,1.04-.6,2.37-.48,3.33.31,2.47,4.72.73,7.05,1.66.69.27.29,1.66.38,2.9Z"/>
      <path class="cls-5" d="M1650.02,841.22c-1.49-.19-3.31,2.03-5.27,1.53-1.64-.42-3.68-.67-4.51-2.94s-.15-4.34,1.2-5.75c3.2-3.33,7.94-2.03,8.71-3.57.51-1.02-.41-2.5-1.87-2.82-2.31-.5-4.21.3-6.48.81-.49-.58-1.14-2.99-.19-3.49,2.87-1.52,6.43-1.41,9.58-.75,2.38.5,3.8,2.58,3.83,4.96l.16,12.88c-2.35,1.29-3.48-.64-5.17-.86ZM1649.88,834.95c-1.16-1.37-5.53-.04-5.32,2.33.19,2.15,2.79,1.85,3.82,1.19.78-.5,2.53-2.31,1.5-3.52Z"/>
      <path class="cls-5" d="M1783.62,824.63c-3.42,2.64-3.41,10.13-.24,12.63,4.78,3.77,9.59-2.39,8.99,3.69-.18,1.84-8.77,3-12.97-.64-4.51-3.91-4.26-13.88.18-18,4.51-4.19,11.95-2.74,12.47-2.06.43.55.15,2.1-.15,3.16-.36,1.27-5.04-1.27-8.28,1.24Z"/>
      <path class="cls-5" d="M1668.3,841.62c-2.64,1.33-6.31,1.51-8.67.51-.16-1.01-.47-2.66.07-3.05,1.02-.74,3.3.47,5.55-.48.76-.32,1.42-1.25.85-2.2-1.15-1.93-6.62-1.65-6.92-6.02-.16-2.31.69-4.62,3.23-5.69,2.32-.97,5.37-1.41,7.47-.26.64.35.19,2.16.1,2.68-.23,1.37-5.08-.92-5.78,1.71-.78,2.95,6.34,2.22,7.16,6.86.39,2.22-.64,4.72-3.05,5.94Z"/>
      <path class="cls-5" d="M1735.07,841.96c-2.61.97-5.88,1.11-7.81.17-.44-.63-.47-2.74.13-3.09,1.05-.63,3.49.53,5.47-.48,5.06-2.59-5.27-3.38-6.02-7.44-.46-2.52.21-4.91,2.66-6.17s5.69-1.71,7.93-.46c.62.35.18,2.09.11,2.6-.17,1.32-5.1-.81-5.84,1.75-.79,2.76,6.32,2.41,7.1,6.6.51,2.73-.62,5.37-3.73,6.52Z"/>
      <path class="cls-5" d="M1637.45,827.88c-10.5,3.9,1.14,17.11-9.21,14.16.84-4.66-3.21-24.12,4.88-16.43,1.4-.42,2.12-1.95,4.14-1.68,1.07.14,1.15,3.6.2,3.95Z"/>
    </g>
    <g>
      <path class="cls-6" d="M1685.88,838.11c0,1.3.6,2.67.1,3.98-12.76,5.98-24.94,14.19-34.23,26.07,13.64-.43,28.03-2.34,39.03,4.09.89.48,1.28,1.37,1.22,1.97-.41,3.92-7.33-2.85-19.19-3.26-15.08-.52-32.42,1.71-34.93,19.22-.84,5.89-.45,11.88,3.23,16.76,6.68,8.87,18.17,11.03,28.43,7.01.81-.32,1.08,1.98.59,2.29-5.53,3.5-2.38.45-6.4,2.99h-11.07c-.76-.95-2.16-1.27-3.42-1.71-10.06-3.47-15.96-12.16-16.07-22.61-.08-7.45,2.31-13.4,6.38-19.91-13.58,1.59-24.55,6.06-36.06,10.72-8.25,3.34-16.21,7.24-22.57,13.5-2.95,2.9,10.54,5.02,5.72,7.27-3.38,1.58-8.76-.95-11.58-3.34-1.86-1.57,0-4.32,1.25-5.55,13.9-13.77,47.51-24.16,67.34-27.71,9.34-11.2,20.94-18.87,31.99-27.58l3.23.02c.87,0,1.19-1.08,1.25-1.97,2.03-.51,3.68-1.97,5.78-2.27Z"/>
      <path class="cls-6" d="M1828.43,876.38v6.97c-3.84,7.05-8.81,13.25-17.13,15.73-1.19.35-2.61-.15-2.83-1.29-.14-.72.52-1.83,1.74-2.24,15.57-5.29,16.48-19.2,12.66-19.32-3.43-.11-2.5,6.45-4.46,8.38-2.66,2.61-6.23-2.24-11.18,2.12-1.62,1.43-4.35,1.37-6.34.52-1.24-.53-1.44-2.86-2.92-4.18-3.75-3.34-6.95,4.02-11.49,3.89-3.76-.11-2.44-4.17-4.09-5.16-2.71-1.64-7.36,6.06-10.56,6.73-3.73.78-7.62-3.79-7.92-7.18-.16-1.88,1.41-2.75,2.4-3.02.82-.22,2.5-.59,2.98.69.53,1.39.27,4.75,1.98,5.07,5.85-1.04,9.73-12.09,14.13-10.06,2.78,1.28-1.46,8.1,1.63,9.32,5.37.82,6.41-9.42,12.29-7.76,4.19,1.18.46,10.44,6.8,7.86,8.58-3.49,9.5-.57,10.93-6.44.83-3.41,2.89-5.04,6.05-5.11,2.87-.06,3.9,2.1,5.31,4.5Z"/>
      <path class="cls-6" d="M1736.87,883.11c-1.93-3.63-1.32,5.73-7.39,4.94-1.9-.25-4.83-1.54-4.14-4.52.75-3.22,4.15-6.48,7.4-7.45,2.54-.76,5.26.73,7.55,1.13.82,2.23-.06,4.27,1.12,6.31,1.06,1.81,4.2.35,5.04-1.17,2.08-3.83,5.86-5.04,8.56-7.74,4.2-4.19,4.87-14.86,12.27-13.28,1.35.29,3.48,3.47,1.8,4.53-3.71,2.33-6.7,4.23-9.22,8.09-7.05,10.79-6.22,18.08-9.08,23.54-.39.74-2.78,1-2.84-.2-.24-4.82,1.82-9.06,2-13.89-2.82-.11-4,6.27-10.28,3.86-1.09-.42-1.62-1.87-2.82-4.13ZM1733.05,879.58c-1.76-.11-4.8,2.14-3.86,3.77,1.31,2.29,6.66-3.59,3.86-3.77Z"/>
      <path class="cls-6" d="M1716.2,890.23c-4.06,1.34-12.82,5.72-15.71,2.65-5.99-6.36,11.8-13.15,10.26-16.69-2.34.42-4.02,1.62-6.31,2.51-1.4.54-5.29-.55-4.06-2.14,2.07-2.69,7.05-3.94,10.73-3.91,3.09.02,5.17,6.67,2.26,7.81-4.18,1.63-10.14,4.17-8.49,9.38,4.44,3.08,11.17-6.55,12.69-1.86.2.61-.28,1.9-1.35,2.25Z"/>
      <path class="cls-6" d="M1688.05,906.97c-.87,1.48-11.37,8.17-12.19,5.3-.7-2.47,10.23-6.4,12.19-5.3Z"/>
      <path class="cls-6" d="M1597.48,905.24c1.43,2.5-4.94,3.29-7.83,1.81-.64-.33-.91-.94-1.03-1.27-.2-.55.43-1.48,1.38-1.46l5.91.1c.76.01,1.36.47,1.56.82Z"/>
      <path class="cls-6" d="M1696.97,833.98l.02,4.01c-2.03,0-4.08.81-5.92,1.63v-4.54s5.9-1.1,5.9-1.1Z"/>
      <path class="cls-6" d="M1706.74,833.46c-.14,1.31.12,2.65.09,4.6-1.55-.55-3.15-.99-4.8-.92-.07-1.25.31-2.67.12-3.87,1.53.16,3.06.33,4.59.19Z"/>
      <path class="cls-6" d="M1673.88,914.81c-1.4.6-2.26.18-2.61-.83-.26-.76.39-1.35,1.59-1.71.84-.25,1.66-.4,2.23.18.5.51.03,1.82-1.22,2.36Z"/>
      <path class="cls-6" d="M1599.87,904.44c.71-.34,1.55-.4,2.19.24.4.4.27,1.25-.42,1.7-.43.28-1.27.47-2.01.06-.56-.31-.85-1.49.24-2.01Z"/>
    </g>
  </g>
</svg>